# File created by Blade
# Date/Time:  Thu Sep 25 15:31:15 2014
# Frame Rate: 120.000 fps
#------------------------------------------------------
:FULLY-SPECIFIED
:DEGREES
1229
root -36.573539 32.750113 14.776053 289.676282 26.928457 -149.092371
Spine 18.263575 8.879270 -18.488525
Head -76.514546 16.049814 1.774513
LeftShoulder 11.510597 0.898781 35.153599
LeftArm 51.779168 -27.169894 -40.420218
LeftForeArm -42.031329 -0.000000 21.700761
LeftHand -34.400280 0.000000 26.009819
LeftHandThumb1 -26.253704 0.000000 33.147579
RightShoulder 2.712272 32.935668 -34.778352
RightArm 48.268767 9.171981 48.297226
RightForeArm -25.792740 -0.000000 48.487955
RightHand -6.890850 -0.000000 -2.628218
RightHandThumb1 -24.326973 -0.000000 -32.862282
LeftUpLeg -83.864422 17.432185 8.410241
LeftLeg 2.102233 -0.000000 -0.000000
LeftFoot -22.452709 22.324593 -19.976874
LeftToeBase 1.872733 -0.000000 -0.000000
RightUpLeg -31.217256 -3.614951 14.310620
RightLeg 8.720903 -0.000000 -0.000000
RightFoot -0.015804 -0.575870 -5.765479
RightToeBase -7.417444 -0.000000 0.000000
1230
root -36.563496 32.749899 14.903334 288.276252 27.380592 -149.751978
Spine 18.577731 8.744331 -18.154136
Head -76.540793 15.322446 1.600897
LeftShoulder 11.356297 1.772447 33.943638
LeftArm 51.629251 -26.424695 -40.008385
LeftForeArm -40.010873 -0.000000 23.604905
LeftHand -34.518456 0.000000 27.187757
LeftHandThumb1 -26.253704 0.000000 33.147579
RightShoulder 2.070292 33.418351 -34.148471
RightArm 48.474187 6.693553 49.259739
RightForeArm -25.852085 0.000000 47.997241
RightHand -6.298779 -0.000000 -2.308145
RightHandThumb1 -24.326973 -0.000000 -32.862282
LeftUpLeg -82.842302 16.784471 8.226960
LeftLeg 1.643881 -0.000000 -0.000000
LeftFoot -21.840966 21.944740 -20.146319
LeftToeBase 1.018773 -0.000000 -0.000000
RightUpLeg -31.011622 -3.358144 14.001318
RightLeg 8.615358 -0.000000 -0.000000
RightFoot 0.188730 -0.811524 -6.332320
RightToeBase -8.644349 -0.000000 0.000000
1231
root -36.542981 32.749508 15.030280 286.913844 27.639149 -150.443723
Spine 18.769369 8.846366 -17.570350
Head -76.554403 14.450835 1.374097
LeftShoulder 11.180119 3.170485 32.692366
LeftArm 52.321333 -25.890491 -39.629940
LeftForeArm -37.701967 -0.000000 25.069923
LeftHand -34.378083 -0.000000 27.867264
LeftHandThumb1 -26.253704 0.000000 33.147579
RightShoulder 1.233743 34.148656 -33.595372
RightArm 48.193461 3.862653 50.021629
RightForeArm -26.065801 -0.000000 47.547469
RightHand -5.679001 -0.000000 -1.960407
RightHandThumb1 -24.326973 -0.000000 -32.862282
LeftUpLeg -81.915479 16.188333 8.202516
LeftLeg 1.286093 -0.000000 -0.000000
LeftFoot -21.477381 21.594780 -20.388777
LeftToeBase 1.047889 -0.000000 -0.000000
RightUpLeg -30.806188 -3.146172 13.855772
RightLeg 8.555965 -0.000000 -0.000000
RightFoot -0.310979 -0.915261 -5.106017
RightToeBase -6.726413 -0.000000 0.000000
1232
root -36.524944 32.744507 15.150060 285.526833 27.930532 -151.142817
Spine 18.983370 8.854594 -17.032283
Head -76.556623 13.573032 1.102860
LeftShoulder 10.869831 5.105729 31.345599
LeftArm 53.472086 -25.722703 -39.096575
LeftForeArm -35.707925 -0.000000 26.213770
LeftHand -34.381810 -0.000000 28.673991
LeftHandThumb1 -26.253704 0.000000 33.147579
RightShoulder 0.489937 37.544423 -33.844718
RightArm 45.031877 -0.213110 51.824934
RightForeArm -26.686398 -0.000000 47.557167
RightHand -5.141822 -0.000000 -1.559742
RightHandThumb1 -24.326973 -0.000000 -32.862282
LeftUpLeg -80.968033 15.561171 8.084958
LeftLeg 0.892962 -0.000000 -0.000000
LeftFoot -20.996471 21.547406 -20.325154
LeftToeBase 0.904693 -0.000000 -0.000000
RightUpLeg -30.540078 -3.087152 13.709064
RightLeg 8.450230 -0.000000 -0.000000
RightFoot 0.000389 -1.253848 -5.471820
RightToeBase -8.122195 -0.000000 0.000000
1233
root -36.512298 32.745697 15.288115 284.052852 28.015964 -151.783135
Spine 19.214936 9.045993 -16.452045
Head -76.252701 13.193009 1.181226
LeftShoulder 10.564243 7.081570 30.467362
LeftArm 54.952872 -25.655681 -39.103874
LeftForeArm -33.506659 0.000000 27.073450
LeftHand -34.183640 0.000000 29.959845
LeftHandThumb1 -26.253704 0.000000 33.147579
RightShoulder 0.677628 37.460720 -33.397729
RightArm 43.728628 -1.741574 52.477766
RightForeArm -26.912356 -0.000000 48.248702
RightHand -5.092154 -0.000000 -1.381451
RightHandThumb1 -24.326973 -0.000000 -32.862282
LeftUpLeg -79.998231 15.045491 8.150681
LeftLeg 0.612383 -0.000000 -0.000000
LeftFoot -20.635159 21.386352 -20.380850
LeftToeBase 1.300563 -0.000000 -0.000000
RightUpLeg -30.159995 -3.077715 13.754814
RightLeg 8.452942 -0.000000 -0.000000
RightFoot -0.457961 -1.501872 -4.725733
RightToeBase -7.078320 -0.000000 0.000000
1234
root -36.500561 32.744394 15.418766 282.603258 28.113848 -152.383361
Spine 19.416207 9.089468 -15.971524
Head -75.877800 12.967633 1.260108
LeftShoulder 10.098434 8.839239 29.653235
LeftArm 56.273064 -25.525370 -39.466101
LeftForeArm -31.496121 0.000000 27.938772
LeftHand -34.138191 -0.000000 30.619028
LeftHandThumb1 -26.253704 0.000000 33.147579
RightShoulder 0.980425 37.215336 -32.854431
RightArm 42.715851 -3.182923 53.107641
RightForeArm -27.144983 -0.000000 48.803738
RightHand -4.962265 -0.000000 -1.142875
RightHandThumb1 -24.326973 -0.000000 -32.862282
LeftUpLeg -78.988549 14.523643 8.219376
LeftLeg 0.319347 -0.000000 -0.000000
LeftFoot -20.238392 21.466798 -20.176994
LeftToeBase 1.074963 -0.000000 -0.000000
RightUpLeg -29.743347 -3.156154 13.792120
RightLeg 8.453386 -0.000000 -0.000000
RightFoot -0.739437 -1.870531 -4.233998
RightToeBase -6.707974 -0.000000 0.000000
1235
root -36.488223 32.741481 15.547573 281.189568 28.149313 -152.909942
Spine 19.561061 9.733321 -15.412479
Head -75.437392 12.529066 1.632848
LeftShoulder 10.014836 11.144079 29.195371
LeftArm 58.415947 -25.836487 -40.058679
LeftForeArm -28.952687 -0.000000 28.482487
LeftHand -33.841934 -0.000000 31.162484
LeftHandThumb1 -26.253704 0.000000 33.147579
RightShoulder 0.854143 36.167740 -32.284788
RightArm 42.101216 -4.372165 53.316801
RightForeArm -27.487717 0.000000 49.242418
RightHand -4.615456 -0.000000 -1.064503
RightHandThumb1 -24.326973 -0.000000 -32.862282
LeftUpLeg -77.996366 14.092709 8.264179
LeftLeg 0.047640 -0.000000 -0.000000
LeftFoot -19.865139 21.310663 -20.160772
LeftToeBase 0.928228 -0.000000 -0.000000
RightUpLeg -29.279046 -3.306220 13.929854
RightLeg 8.423635 -0.000000 -0.000000
RightFoot -0.228974 -2.230282 -5.437896
RightToeBase -8.981206 -0.000000 0.000000
1236
root -36.473105 32.741543 15.663239 279.891617 28.138195 -153.343143
Spine 19.637512 10.099942 -14.826823
Head -75.012991 12.084130 1.789740
LeftShoulder 9.718465 13.039754 28.527186
LeftArm 59.927022 -25.766380 -40.499328
LeftForeArm -26.308951 0.000000 29.156653
LeftHand -33.713173 0.000000 31.474350
LeftHandThumb1 -26.253704 0.000000 33.147579
RightShoulder 0.825679 35.072665 -31.735093
RightArm 41.936141 -5.611576 53.534027
RightForeArm -27.634841 -0.000000 49.554717
RightHand -4.708386 -0.000000 -0.957567
RightHandThumb1 -24.326973 -0.000000 -32.862282
LeftUpLeg -77.012017 13.740741 8.319604
LeftLeg -0.298324 -0.000000 0.000000
LeftFoot -19.478744 21.282851 -20.024001
LeftToeBase 1.020194 -0.000000 -0.000000
RightUpLeg -28.880772 -3.427763 14.054553
RightLeg 8.497008 -0.000000 -0.000000
RightFoot -0.615685 -2.287837 -4.535064
RightToeBase -7.438437 -0.000000 0.000000
1237
root -36.457443 32.742381 15.770420 278.697822 28.174686 -153.651280
Spine 19.616510 10.399732 -14.400047
Head -74.546106 11.782855 1.941126
LeftShoulder 9.442521 14.030834 27.934801
LeftArm 60.533300 -25.095670 -41.035793
LeftForeArm -23.520785 -0.000000 29.931066
LeftHand -33.628030 0.000000 31.981249
LeftHandThumb1 -26.253704 0.000000 33.147579
RightShoulder 0.997284 34.241311 -31.169075
RightArm 41.499531 -6.924627 53.852755
RightForeArm -28.068799 -0.000000 49.785434
RightHand -4.368514 -0.000000 -1.227375
RightHandThumb1 -24.326973 -0.000000 -32.862282
LeftUpLeg -76.058158 13.520104 8.158764
LeftLeg -0.669140 -0.000000 0.000000
LeftFoot -19.094433 21.110726 -19.924745
LeftToeBase 1.076988 -0.000000 -0.000000
RightUpLeg -28.513392 -3.450642 14.080081
RightLeg 8.608983 -0.000000 -0.000000
RightFoot -0.791041 -2.482263 -4.008322
RightToeBase -6.831180 -0.000000 0.000000
1238
root -36.440370 32.738116 15.870114 277.495182 28.201002 -153.905981
Spine 19.653069 10.743773 -13.974055
Head -74.132467 11.526074 2.099208
LeftShoulder 9.153421 14.500145 27.375793
LeftArm 60.686262 -24.019358 -41.440242
LeftForeArm -21.034922 0.000000 30.737340
LeftHand -33.454166 -0.000000 31.548663
LeftHandThumb1 -26.253704 0.000000 33.147579
RightShoulder 1.067059 33.424569 -30.618122
RightArm 41.194519 -8.292851 54.105027
RightForeArm -28.137995 0.000000 50.061720
RightHand -4.642495 -0.000000 -0.764004
RightHandThumb1 -24.326973 -0.000000 -32.862282
LeftUpLeg -75.032341 13.352358 7.957234
LeftLeg -1.093066 -0.000000 0.000000
LeftFoot -18.765130 20.950048 -19.792742
LeftToeBase 1.215902 -0.000000 -0.000000
RightUpLeg -28.082152 -3.545138 14.120485
RightLeg 8.739844 -0.000000 -0.000000
RightFoot -0.792619 -2.535704 -3.619646
RightToeBase -6.537763 -0.000000 0.000000
1239
root -36.426257 32.729180 15.964575 276.341998 28.246215 -154.128501
Spine 19.615569 11.155716 -13.564617
Head -73.631703 11.246938 2.220838
LeftShoulder 8.991936 14.612421 26.920024
LeftArm 60.456711 -22.689790 -41.849555
LeftForeArm -18.809013 -0.000000 31.579063
LeftHand -33.167277 -0.000000 31.560648
LeftHandThumb1 -26.253704 0.000000 33.147579
RightShoulder 1.085166 32.706384 -30.177406
RightArm 40.686712 -9.697554 54.503409
RightForeArm -28.446002 -0.000000 50.219378
RightHand -4.726171 -0.000000 -1.211938
RightHandThumb1 -24.326973 -0.000000 -32.862282
LeftUpLeg -74.038708 13.261389 7.607199
LeftLeg -1.559058 -0.000000 0.000000
LeftFoot -18.352487 20.674632 -19.536178
LeftToeBase 1.375050 -0.000000 -0.000000
RightUpLeg -27.697272 -3.739322 14.189962
RightLeg 8.940028 -0.000000 -0.000000
RightFoot -0.261688 -2.618047 -5.267334
RightToeBase -7.945793 -0.000000 0.000000
